<?xml version="1.0" encoding="utf-8"?>
<!-- Generator: Adobe Illustrator 16.0.0, SVG Export Plug-In . SVG Version: 6.00 Build 0)  -->
<!DOCTYPE svg PUBLIC "-//W3C//DTD SVG 1.1//EN" "http://www.w3.org/Graphics/SVG/1.1/DTD/svg11.dtd">
<svg version="1.1" id="Layer_1" xmlns="http://www.w3.org/2000/svg" xmlns:xlink="http://www.w3.org/1999/xlink" x="0px" y="0px"
	 width="140.75px" height="35px" viewBox="0 0 140.75 35" enable-background="new 0 0 140.75 35" xml:space="preserve">
<g>
	<path d="M17.771,28.444c0,0.319-0.118,0.575-0.352,0.768c-0.235,0.192-0.544,0.288-0.928,0.288c-0.256,0-0.47-0.053-0.64-0.16
		c-0.171-0.106-0.32-0.267-0.448-0.479l-5.76-9.152H9.099H4.362v8.544c0,0.363-0.117,0.661-0.352,0.896
		C3.775,29.383,3.477,29.5,3.115,29.5c-0.363,0-0.662-0.117-0.896-0.352c-0.235-0.235-0.352-0.533-0.352-0.896V5.756
		c0-0.362,0.117-0.661,0.352-0.896s0.533-0.353,0.896-0.353h5.984c1.557,0,2.944,0.326,4.16,0.977
		c1.216,0.65,2.171,1.563,2.864,2.735c0.693,1.174,1.04,2.507,1.04,4c0,1.644-0.443,3.083-1.328,4.32s-2.085,2.123-3.6,2.656
		l5.248,8.384C17.674,27.9,17.771,28.188,17.771,28.444z M9.099,17.308c1.066,0,2.032-0.218,2.896-0.655
		c0.864-0.438,1.536-1.04,2.016-1.809c0.48-0.768,0.72-1.643,0.72-2.624c0-1.023-0.24-1.94-0.72-2.752
		c-0.48-0.811-1.147-1.439-2-1.888c-0.854-0.448-1.824-0.672-2.912-0.672H4.362v10.399H9.099z"/>
	<path d="M32.97,12.94c1.216,0.735,2.16,1.755,2.832,3.056c0.672,1.302,1.008,2.784,1.008,4.448c0,0.341-0.107,0.613-0.32,0.815
		c-0.213,0.203-0.491,0.305-0.832,0.305H22.73c0.17,1.749,0.853,3.168,2.048,4.256c1.194,1.088,2.688,1.632,4.48,1.632
		c0.768,0,1.541-0.133,2.32-0.4c0.778-0.267,1.402-0.603,1.872-1.008c0.277-0.213,0.565-0.32,0.864-0.32
		c0.234,0,0.469,0.086,0.704,0.257c0.277,0.256,0.416,0.544,0.416,0.863c0,0.277-0.118,0.523-0.352,0.736
		c-0.704,0.598-1.6,1.094-2.688,1.488c-1.088,0.395-2.134,0.592-3.136,0.592c-1.707,0-3.232-0.379-4.576-1.136
		c-1.344-0.758-2.395-1.813-3.152-3.168s-1.136-2.886-1.136-4.593c0-1.728,0.357-3.269,1.072-4.624
		c0.714-1.354,1.707-2.41,2.976-3.168c1.269-0.757,2.714-1.136,4.336-1.136C30.357,11.836,31.754,12.204,32.97,12.94z
		 M24.747,15.548c-1.067,1.003-1.718,2.325-1.952,3.968h11.712c-0.171-1.643-0.768-2.965-1.792-3.968
		c-1.024-1.002-2.336-1.504-3.936-1.504C27.157,14.044,25.813,14.546,24.747,15.548z"/>
	<path d="M52.827,13.004c1.354,0.779,2.421,1.852,3.2,3.216c0.778,1.366,1.168,2.88,1.168,4.544v7.521
		c0,0.342-0.118,0.629-0.352,0.864c-0.235,0.234-0.534,0.352-0.896,0.352c-0.363,0-0.662-0.112-0.896-0.336
		c-0.235-0.224-0.352-0.517-0.352-0.88v-1.92c-0.747,1.023-1.696,1.829-2.848,2.416s-2.421,0.88-3.808,0.88
		c-1.621,0-3.088-0.389-4.4-1.168c-1.312-0.778-2.347-1.845-3.104-3.2c-0.757-1.354-1.136-2.864-1.136-4.528
		s0.389-3.178,1.168-4.544c0.778-1.364,1.845-2.437,3.2-3.216c1.354-0.778,2.864-1.168,4.528-1.168S51.472,12.226,52.827,13.004z
		 M51.595,26.556c0.981-0.575,1.754-1.37,2.32-2.384c0.565-1.013,0.848-2.148,0.848-3.408c0-1.258-0.283-2.395-0.848-3.407
		c-0.565-1.014-1.339-1.813-2.32-2.4c-0.981-0.587-2.08-0.88-3.296-0.88c-1.216,0-2.32,0.293-3.312,0.88
		c-0.992,0.587-1.771,1.387-2.336,2.4c-0.566,1.013-0.848,2.149-0.848,3.407c0,1.26,0.282,2.396,0.848,3.408
		c0.565,1.014,1.344,1.809,2.336,2.384c0.992,0.576,2.096,0.864,3.312,0.864C49.515,27.42,50.613,27.132,51.595,26.556z"/>
	<path d="M65.322,28.492c-1.323-0.778-2.363-1.845-3.12-3.2c-0.757-1.354-1.136-2.864-1.136-4.528c0-1.706,0.362-3.236,1.088-4.592
		c0.725-1.354,1.728-2.416,3.008-3.184c1.28-0.769,2.72-1.152,4.32-1.152c2.667,0,4.832,1.024,6.496,3.072
		c0.171,0.191,0.256,0.416,0.256,0.672c0,0.342-0.182,0.64-0.544,0.896c-0.192,0.128-0.395,0.192-0.608,0.192
		c-0.32,0-0.629-0.16-0.928-0.479c-0.64-0.704-1.344-1.232-2.112-1.585c-0.768-0.352-1.622-0.527-2.56-0.527
		c-1.174,0-2.219,0.283-3.136,0.848c-0.917,0.565-1.627,1.36-2.128,2.384c-0.501,1.024-0.752,2.177-0.752,3.456
		c0,1.26,0.267,2.396,0.8,3.408c0.533,1.014,1.28,1.809,2.24,2.384c0.96,0.576,2.059,0.864,3.296,0.864
		c1.707,0,3.083-0.458,4.128-1.376c0.277-0.234,0.565-0.352,0.864-0.352c0.256,0,0.49,0.085,0.704,0.256
		c0.299,0.256,0.448,0.544,0.448,0.863c0,0.278-0.107,0.513-0.32,0.704c-1.536,1.43-3.478,2.145-5.824,2.145
		C68.138,29.66,66.645,29.271,65.322,28.492z"/>
	<path d="M89.61,27.388c0.213,0.235,0.32,0.534,0.32,0.896c0,0.342-0.128,0.629-0.384,0.864c-0.256,0.234-0.576,0.352-0.96,0.352
		h-0.672c-1.131,0-2.144-0.272-3.04-0.816s-1.595-1.279-2.096-2.208c-0.501-0.928-0.752-1.979-0.752-3.151V14.78h-2.08
		c-0.341,0-0.613-0.102-0.816-0.305c-0.203-0.202-0.304-0.452-0.304-0.752c0-0.319,0.101-0.581,0.304-0.783
		c0.203-0.203,0.475-0.305,0.816-0.305h2.08v-4.96c0-0.362,0.112-0.661,0.336-0.896c0.224-0.234,0.517-0.353,0.88-0.353
		c0.362,0,0.661,0.118,0.896,0.353c0.234,0.234,0.352,0.533,0.352,0.896v4.96h3.616c0.341,0,0.613,0.102,0.816,0.305
		c0.203,0.202,0.304,0.464,0.304,0.783c0,0.3-0.102,0.55-0.304,0.752c-0.203,0.203-0.475,0.305-0.816,0.305H84.49v8.544
		c0,1.088,0.32,1.979,0.96,2.672c0.64,0.693,1.461,1.04,2.464,1.04h0.864C89.119,27.036,89.396,27.153,89.61,27.388z"/>
</g>
<g>
	<path d="M129.952,14.94c-0.981-0.576-2.091-0.864-3.328-0.864c-1.216,0-2.32,0.288-3.312,0.864
		c-0.992,0.575-1.771,1.37-2.336,2.384c-0.566,1.014-0.848,2.16-0.848,3.439c0,1.26,0.282,2.396,0.848,3.408
		c0.565,1.014,1.344,1.809,2.336,2.384c0.992,0.576,2.096,0.864,3.312,0.864c1.237,0,2.346-0.288,3.328-0.864
		c0.981-0.575,1.749-1.37,2.304-2.384c0.555-1.013,0.832-2.148,0.832-3.408c0-1.279-0.277-2.426-0.832-3.439
		C131.701,16.311,130.933,15.516,129.952,14.94z"/>
	<path d="M91,1.5v32h48v-32H91z M97.76,22.236c0.896,1.6,2.112,2.869,3.648,3.808c1.536,0.939,3.114,1.408,4.928,1.408
		c2.069,0,3.664-0.608,5.664-1.824V19.5h-4.8c-0.363,0-0.662-0.242-0.896-0.455c-0.235-0.213-0.352-0.549-0.352-0.868
		c0-0.32,0.117-0.375,0.352-0.578c0.234-0.203,0.533-0.099,0.896-0.099h6.176c0.362,0,0.849-0.128,1.084,0.097
		c0.234,0.224,0.54,0.276,0.54,0.64v7.936c0,0.363-0.306,0.662-0.54,0.896c-1.984,1.835-4.691,2.752-7.934,2.752
		c-2.262,0-4.389-0.576-6.288-1.729c-1.899-1.151-3.431-2.709-4.551-4.672s-1.692-4.106-1.692-6.432c0-2.305,0.549-4.438,1.658-6.4
		c1.109-1.962,2.61-3.52,4.509-4.672c1.898-1.152,3.987-1.728,6.271-1.728c1.536,0,2.933,0.224,4.191,0.672
		c1.258,0.447,2.474,1.163,3.647,2.144c0.234,0.171,0.352,0.416,0.352,0.736c0,0.171-0.043,0.325-0.128,0.464
		c-0.085,0.139-0.203,0.24-0.352,0.304c-0.043,0.149-0.139,0.272-0.288,0.368c-0.149,0.096-0.31,0.144-0.48,0.144
		c-0.299,0-0.565-0.106-0.8-0.319c-0.832-0.747-1.739-1.291-2.72-1.632c-0.981-0.342-2.123-0.513-3.424-0.513
		c-1.792,0-3.456,0.476-4.992,1.425s-2.757,2.224-3.664,3.823c-0.907,1.601-1.36,3.328-1.36,5.185
		C96.416,18.887,96.864,20.636,97.76,22.236z M134.368,25.324c-0.768,1.354-1.829,2.416-3.184,3.184
		c-1.355,0.769-2.875,1.152-4.56,1.152c-1.686,0-3.206-0.384-4.56-1.152c-1.355-0.768-2.416-1.829-3.184-3.184
		s-1.152-2.875-1.152-4.561c0-1.685,0.384-3.21,1.152-4.575s1.829-2.433,3.184-3.2c1.354-0.769,2.875-1.152,4.56-1.152
		c1.685,0,3.2,0.384,4.544,1.152c1.344,0.768,2.405,1.835,3.184,3.2c0.778,1.365,1.168,2.891,1.168,4.575
		C135.52,22.449,135.136,23.97,134.368,25.324z"/>
</g>
</svg>
